. 
  
http://www.torrentday.com/        :     The Hottest Private Tracker On The Net!!!
 
http://www.torrentday.com          :     Once & For all ;)


               www . TorrentDay . Com 

(((((((((((((= Enjoy No RAR releases =))))))))))))))))))))


...................................NFO:....................................

.                                             
                               
                                 
                                      
                                      
                                       
    CoaX!<CPH>                         
                               
                         
                            
          
    Team FiCO <Final Coalition> 2k8 Presents:    
    

Girl.27.2007.DVDRip.XviD-FiCO 
http://www.imdb.com/title/tt0912586/
Subtitles: None
Date: 2010.12

Director: David Stenn
Genre: Documentary 
Plot: The reclusive Patricia Douglas comes out of hiding to discuss the 1937 
MGM scandal, in which the powerful film studio tricked her and over 100 other 
underage girls into attending a stag party, where she was raped.

Cast
Credited cast:
Baby Peggy 	Baby Peggy 	... 	
Herself (as Peggy Montgomery)
Richard Bann 	Richard Bann 	... 	
Himself
Kelly Brown 	Kelly Brown 	... 	
Himself
Ned Comstock 	Ned Comstock 	... 	
Himself
Joan Crawford 	Joan Crawford 	... 	
Herself (archive footage)
Patricia Douglas 	Patricia Douglas 	... 	
Herself
Buron Fitts 	Buron Fitts 	... 	
Himself (archive footage)
Clark Gable 	Clark Gable 	... 	
Himself (archive footage)
Jean Harlow 	Jean Harlow 	... 	
Herself (archive footage)
Judy Lewis 	Judy Lewis 	... 	
Herself
E.J. Mannix 	E.J. Mannix 	... 	
Himself (archive footage)
Louis B. Mayer 	Louis B. Mayer 	... 	
Himself (archive footage)
Judd D. Minter 	Judd D. Minter 	... 	
Himself (as Judd Minter)
Patti Minter 	Patti Minter 	... 	
Herself
Norma Shearer 	Norma Shearer 	... 	
Herself (archive footage)
Full cast and crew  

Stats:
General
Format                           : AVI
Format/Info                      : Audio Video Interleave
File size                        : 697 MiB
Duration                         : 1h 19mn
Overall bit rate                 : 1 222 Kbps
Writing application              : VirtualDubMod 1.5.10.2 (build 2542/release)
Writing library                  : VirtualDubMod build 2542/release

Video
ID                               : 0
Format                           : MPEG-4 Visual
Format profile                   : Advanced Simple@L5
Format settings, BVOP            : Yes
Format settings, QPel            : No
Format settings, GMC             : No warppoints
Format settings, Matrix          : Default (H.263)
Codec ID                         : XVID
Codec ID/Hint                    : XviD
Duration                         : 1h 19mn
Bit rate                         : 1 020 Kbps
Width                            : 640 pixels
Height                           : 352 pixels
Display aspect ratio             : 16:9
Frame rate                       : 23.976 fps
Resolution                       : 8 bits
Colorimetry                      : 4:2:0
Scan type                        : Progressive
Bits/(Pixel*Frame)               : 0.189
Stream size                      : 582 MiB (84%)
Writing library                  : XviD 1.2.1 (UTC 2008-12-04)

Audio
ID                               : 1
Format                           : AC-3
Format/Info                      : Audio Coding 3
Format_Settings_ModeExtension    : CM (complete main)
Codec ID                         : 2000
Duration                         : 1h 19mn
Bit rate mode                    : Constant
Bit rate                         : 192 Kbps
Channel(s)                       : 2 channels
Channel positions                : Front: L R
Sampling rate                    : 48.0 KHz
Video delay                      : 3ms
Stream size                      : 109 MiB (16%)
Alignment                        : Split accross interleaves
Interleave, duration             : 42 ms (1.00 video frame)
Interleave, preload duration     : 500 ms




Release notes:
enjoy!


                                                                     
                                                             
                                                               
                                                               
                       
      
              Greetz from Team FiCO:               
              
                                                             
                                                             
           BLooDWeiSeR,CULTXviD,SiCK,DoNE,LAP,TH30R1STS              
                                                                             
               WinBeta, DvF, WASTE, BERC, KALEVALA, Jiggly                   
                                                                             
                                                             
                                       
                             
                      
                  
           
            
                    
                  
                
                            
                                        
                                        
                                            
                                                    
                                                              
                      you know where to find us...                     
                        
   NFO By: CoaXCable/CoolPHat <#CPH>